<svg width="16" height="18" viewBox="0 0 16 18" fill="none" xmlns="http://www.w3.org/2000/svg">
<path d="M6.22222 5.4443H11.5556C11.7913 5.4443 12.0174 5.35065 12.1841 5.18395C12.3508 5.01725 12.4444 4.79115 12.4444 4.55541C12.4444 4.31966 12.3508 4.09357 12.1841 3.92687C12.0174 3.76017 11.7913 3.66652 11.5556 3.66652H6.22222C5.98647 3.66652 5.76038 3.76017 5.59368 3.92687C5.42698 4.09357 5.33333 4.31966 5.33333 4.55541C5.33333 4.79115 5.42698 5.01725 5.59368 5.18395C5.76038 5.35065 5.98647 5.4443 6.22222 5.4443ZM4.44445 8.99985H11.5556C11.7913 8.99985 12.0174 8.9062 12.1841 8.7395C12.3508 8.5728 12.4444 8.34671 12.4444 8.11096C12.4444 7.87521 12.3508 7.64912 12.1841 7.48242C12.0174 7.31572 11.7913 7.22207 11.5556 7.22207H4.44445C4.2087 7.22207 3.9826 7.31572 3.81591 7.48242C3.64921 7.64912 3.55556 7.87521 3.55556 8.11096C3.55556 8.34671 3.64921 8.5728 3.81591 8.7395C3.9826 8.9062 4.2087 8.99985 4.44445 8.99985ZM4.44445 12.5554H11.5556C11.7913 12.5554 12.0174 12.4618 12.1841 12.2951C12.3508 12.1284 12.4444 11.9023 12.4444 11.6665C12.4444 11.4308 12.3508 11.2047 12.1841 11.038C12.0174 10.8713 11.7913 10.7776 11.5556 10.7776H4.44445C4.2087 10.7776 3.9826 10.8713 3.81591 11.038C3.64921 11.2047 3.55556 11.4308 3.55556 11.6665C3.55556 11.9023 3.64921 12.1284 3.81591 12.2951C3.9826 12.4618 4.2087 12.5554 4.44445 12.5554ZM15.1111 0.110962H0.888889C0.653141 0.110962 0.427049 0.204612 0.26035 0.371311C0.0936505 0.53801 0 0.764103 0 0.999851V16.9999C0 17.1649 0.0459686 17.3267 0.132755 17.4672C0.219541 17.6076 0.343716 17.7211 0.491366 17.7949C0.639015 17.8687 0.804306 17.9 0.968716 17.8852C1.13313 17.8703 1.29016 17.81 1.42222 17.711L3.26222 16.3332L5.09333 17.711C5.2472 17.8264 5.43434 17.8887 5.62667 17.8887C5.819 17.8887 6.00614 17.8264 6.16 17.711L8 16.3332L9.84 17.711C9.99386 17.8264 10.181 17.8887 10.3733 17.8887C10.5657 17.8887 10.7528 17.8264 10.9067 17.711L12.7378 16.3332L14.5778 17.711C14.7105 17.8099 14.8682 17.8698 15.0331 17.8839C15.1979 17.898 15.3635 17.8658 15.5111 17.791C15.6577 17.7171 15.781 17.6041 15.8673 17.4644C15.9536 17.3248 15.9995 17.164 16 16.9999V0.999851C16 0.764103 15.9064 0.53801 15.7397 0.371311C15.573 0.204612 15.3469 0.110962 15.1111 0.110962ZM14.2222 15.2221L13.2711 14.511C13.1173 14.3956 12.9301 14.3332 12.7378 14.3332C12.5455 14.3332 12.3583 14.3956 12.2044 14.511L10.3733 15.8887L8.53333 14.511C8.37947 14.3956 8.19233 14.3332 8 14.3332C7.80767 14.3332 7.62053 14.3956 7.46667 14.511L5.62667 15.8887L3.79556 14.511C3.64169 14.3956 3.45455 14.3332 3.26222 14.3332C3.06989 14.3332 2.88275 14.3956 2.72889 14.511L1.77778 15.2221V1.88874H14.2222V15.2221Z" fill="url(#paint0_linear_303_4)" fill-opacity="0.2"/>
<path d="M6.22222 5.4443H11.5556C11.7913 5.4443 12.0174 5.35065 12.1841 5.18395C12.3508 5.01725 12.4444 4.79115 12.4444 4.55541C12.4444 4.31966 12.3508 4.09357 12.1841 3.92687C12.0174 3.76017 11.7913 3.66652 11.5556 3.66652H6.22222C5.98647 3.66652 5.76038 3.76017 5.59368 3.92687C5.42698 4.09357 5.33333 4.31966 5.33333 4.55541C5.33333 4.79115 5.42698 5.01725 5.59368 5.18395C5.76038 5.35065 5.98647 5.4443 6.22222 5.4443ZM4.44445 8.99985H11.5556C11.7913 8.99985 12.0174 8.9062 12.1841 8.7395C12.3508 8.5728 12.4444 8.34671 12.4444 8.11096C12.4444 7.87521 12.3508 7.64912 12.1841 7.48242C12.0174 7.31572 11.7913 7.22207 11.5556 7.22207H4.44445C4.2087 7.22207 3.9826 7.31572 3.81591 7.48242C3.64921 7.64912 3.55556 7.87521 3.55556 8.11096C3.55556 8.34671 3.64921 8.5728 3.81591 8.7395C3.9826 8.9062 4.2087 8.99985 4.44445 8.99985ZM4.44445 12.5554H11.5556C11.7913 12.5554 12.0174 12.4618 12.1841 12.2951C12.3508 12.1284 12.4444 11.9023 12.4444 11.6665C12.4444 11.4308 12.3508 11.2047 12.1841 11.038C12.0174 10.8713 11.7913 10.7776 11.5556 10.7776H4.44445C4.2087 10.7776 3.9826 10.8713 3.81591 11.038C3.64921 11.2047 3.55556 11.4308 3.55556 11.6665C3.55556 11.9023 3.64921 12.1284 3.81591 12.2951C3.9826 12.4618 4.2087 12.5554 4.44445 12.5554ZM15.1111 0.110962H0.888889C0.653141 0.110962 0.427049 0.204612 0.26035 0.371311C0.0936505 0.53801 0 0.764103 0 0.999851V16.9999C0 17.1649 0.0459686 17.3267 0.132755 17.4672C0.219541 17.6076 0.343716 17.7211 0.491366 17.7949C0.639015 17.8687 0.804306 17.9 0.968716 17.8852C1.13313 17.8703 1.29016 17.81 1.42222 17.711L3.26222 16.3332L5.09333 17.711C5.2472 17.8264 5.43434 17.8887 5.62667 17.8887C5.819 17.8887 6.00614 17.8264 6.16 17.711L8 16.3332L9.84 17.711C9.99386 17.8264 10.181 17.8887 10.3733 17.8887C10.5657 17.8887 10.7528 17.8264 10.9067 17.711L12.7378 16.3332L14.5778 17.711C14.7105 17.8099 14.8682 17.8698 15.0331 17.8839C15.1979 17.898 15.3635 17.8658 15.5111 17.791C15.6577 17.7171 15.781 17.6041 15.8673 17.4644C15.9536 17.3248 15.9995 17.164 16 16.9999V0.999851C16 0.764103 15.9064 0.53801 15.7397 0.371311C15.573 0.204612 15.3469 0.110962 15.1111 0.110962ZM14.2222 15.2221L13.2711 14.511C13.1173 14.3956 12.9301 14.3332 12.7378 14.3332C12.5455 14.3332 12.3583 14.3956 12.2044 14.511L10.3733 15.8887L8.53333 14.511C8.37947 14.3956 8.19233 14.3332 8 14.3332C7.80767 14.3332 7.62053 14.3956 7.46667 14.511L5.62667 15.8887L3.79556 14.511C3.64169 14.3956 3.45455 14.3332 3.26222 14.3332C3.06989 14.3332 2.88275 14.3956 2.72889 14.511L1.77778 15.2221V1.88874H14.2222V15.2221Z" fill="#FAFBFC"/>
<defs>
<linearGradient id="paint0_linear_303_4" x1="0" y1="8.99985" x2="16" y2="8.99985" gradientUnits="userSpaceOnUse">
<stop stop-color="#F0F0F0"/>
<stop offset="1" stop-color="#F0F0F0" stop-opacity="0"/>
</linearGradient>
</defs>
</svg>
