<svg width="18" height="18" viewBox="0 0 18 18" fill="none" xmlns="http://www.w3.org/2000/svg">
<path fill-rule="evenodd" clip-rule="evenodd" d="M4.11155 11.6662C3.70961 11.6662 3.1417 11.7217 2.55049 11.8027C2.27429 11.8405 2.06368 12.0511 2.02585 12.3273C1.94488 12.9186 1.88932 13.4865 1.88932 13.8884C1.88932 14.2903 1.94488 14.8582 2.02585 15.4495C2.06368 15.7257 2.27429 15.9363 2.55049 15.9741C3.1417 16.0551 3.70961 16.1106 4.11155 16.1106C4.51348 16.1106 5.08139 16.0551 5.6726 15.9741C5.94881 15.9363 6.15941 15.7257 6.19724 15.4495C6.27821 14.8582 6.33377 14.2903 6.33377 13.8884C6.33377 13.4865 6.27821 12.9186 6.19724 12.3273C6.15941 12.0511 5.94881 11.8405 5.6726 11.8027C5.08139 11.7217 4.51348 11.6662 4.11155 11.6662ZM2.30927 10.0414C1.24269 10.1874 0.410589 11.0195 0.264516 12.0861C0.180735 12.6979 0.111546 13.3623 0.111546 13.8884C0.111546 14.4145 0.180735 15.0789 0.264516 15.6907C0.410589 16.7573 1.24269 17.5894 2.30927 17.7354C2.92101 17.8192 3.58547 17.8884 4.11155 17.8884C4.63763 17.8884 5.30208 17.8192 5.91383 17.7354C6.98041 17.5894 7.8125 16.7573 7.95858 15.6907C8.04236 15.0789 8.11155 14.4145 8.11155 13.8884C8.11155 13.3623 8.04236 12.6979 7.95858 12.0861C7.8125 11.0195 6.98041 10.1874 5.91383 10.0414C5.30208 9.95759 4.63763 9.8884 4.11155 9.8884C3.58547 9.8884 2.92101 9.95759 2.30927 10.0414Z" fill="url(#paint0_linear_303_16)" fill-opacity="0.2"/>
<path fill-rule="evenodd" clip-rule="evenodd" d="M4.11155 11.6662C3.70961 11.6662 3.1417 11.7217 2.55049 11.8027C2.27429 11.8405 2.06368 12.0511 2.02585 12.3273C1.94488 12.9186 1.88932 13.4865 1.88932 13.8884C1.88932 14.2903 1.94488 14.8582 2.02585 15.4495C2.06368 15.7257 2.27429 15.9363 2.55049 15.9741C3.1417 16.0551 3.70961 16.1106 4.11155 16.1106C4.51348 16.1106 5.08139 16.0551 5.6726 15.9741C5.94881 15.9363 6.15941 15.7257 6.19724 15.4495C6.27821 14.8582 6.33377 14.2903 6.33377 13.8884C6.33377 13.4865 6.27821 12.9186 6.19724 12.3273C6.15941 12.0511 5.94881 11.8405 5.6726 11.8027C5.08139 11.7217 4.51348 11.6662 4.11155 11.6662ZM2.30927 10.0414C1.24269 10.1874 0.410589 11.0195 0.264516 12.0861C0.180735 12.6979 0.111546 13.3623 0.111546 13.8884C0.111546 14.4145 0.180735 15.0789 0.264516 15.6907C0.410589 16.7573 1.24269 17.5894 2.30927 17.7354C2.92101 17.8192 3.58547 17.8884 4.11155 17.8884C4.63763 17.8884 5.30208 17.8192 5.91383 17.7354C6.98041 17.5894 7.8125 16.7573 7.95858 15.6907C8.04236 15.0789 8.11155 14.4145 8.11155 13.8884C8.11155 13.3623 8.04236 12.6979 7.95858 12.0861C7.8125 11.0195 6.98041 10.1874 5.91383 10.0414C5.30208 9.95759 4.63763 9.8884 4.11155 9.8884C3.58547 9.8884 2.92101 9.95759 2.30927 10.0414Z" fill="#FAFBFC"/>
<path fill-rule="evenodd" clip-rule="evenodd" d="M13.8895 1.88847C13.4876 1.88847 12.9197 1.94403 12.3285 2.02499C12.0523 2.06282 11.8417 2.27343 11.8038 2.54963C11.7229 3.14084 11.6673 3.70875 11.6673 4.11069C11.6673 4.51263 11.7229 5.08053 11.8038 5.67174C11.8417 5.94795 12.0523 6.15855 12.3285 6.19638C12.9197 6.27735 13.4876 6.33291 13.8895 6.33291C14.2915 6.33291 14.8594 6.27735 15.4506 6.19638C15.7268 6.15855 15.9374 5.94795 15.9752 5.67174C16.0562 5.08053 16.1117 4.51263 16.1117 4.11069C16.1117 3.70875 16.0562 3.14084 15.9752 2.54963C15.9374 2.27343 15.7268 2.06282 15.4506 2.02499C14.8594 1.94403 14.2915 1.88847 13.8895 1.88847ZM12.0872 0.263658C11.0207 0.40973 10.1886 1.24183 10.0425 2.30841C9.95871 2.92015 9.88952 3.58461 9.88952 4.11069C9.88952 4.63677 9.95871 5.30123 10.0425 5.91297C10.1886 6.97955 11.0207 7.81165 12.0872 7.95772C12.699 8.0415 13.3634 8.11069 13.8895 8.11069C14.4156 8.11069 15.0801 8.0415 15.6918 7.95772C16.7584 7.81165 17.5905 6.97955 17.7365 5.91297C17.8203 5.30123 17.8895 4.63677 17.8895 4.11069C17.8895 3.58461 17.8203 2.92015 17.7365 2.30841C17.5905 1.24183 16.7584 0.40973 15.6918 0.263658C15.0801 0.179877 14.4156 0.110687 13.8895 0.110687C13.3634 0.110687 12.699 0.179877 12.0872 0.263658Z" fill="url(#paint1_linear_303_16)" fill-opacity="0.2"/>
<path fill-rule="evenodd" clip-rule="evenodd" d="M13.8895 1.88847C13.4876 1.88847 12.9197 1.94403 12.3285 2.02499C12.0523 2.06282 11.8417 2.27343 11.8038 2.54963C11.7229 3.14084 11.6673 3.70875 11.6673 4.11069C11.6673 4.51263 11.7229 5.08053 11.8038 5.67174C11.8417 5.94795 12.0523 6.15855 12.3285 6.19638C12.9197 6.27735 13.4876 6.33291 13.8895 6.33291C14.2915 6.33291 14.8594 6.27735 15.4506 6.19638C15.7268 6.15855 15.9374 5.94795 15.9752 5.67174C16.0562 5.08053 16.1117 4.51263 16.1117 4.11069C16.1117 3.70875 16.0562 3.14084 15.9752 2.54963C15.9374 2.27343 15.7268 2.06282 15.4506 2.02499C14.8594 1.94403 14.2915 1.88847 13.8895 1.88847ZM12.0872 0.263658C11.0207 0.40973 10.1886 1.24183 10.0425 2.30841C9.95871 2.92015 9.88952 3.58461 9.88952 4.11069C9.88952 4.63677 9.95871 5.30123 10.0425 5.91297C10.1886 6.97955 11.0207 7.81165 12.0872 7.95772C12.699 8.0415 13.3634 8.11069 13.8895 8.11069C14.4156 8.11069 15.0801 8.0415 15.6918 7.95772C16.7584 7.81165 17.5905 6.97955 17.7365 5.91297C17.8203 5.30123 17.8895 4.63677 17.8895 4.11069C17.8895 3.58461 17.8203 2.92015 17.7365 2.30841C17.5905 1.24183 16.7584 0.40973 15.6918 0.263658C15.0801 0.179877 14.4156 0.110687 13.8895 0.110687C13.3634 0.110687 12.699 0.179877 12.0872 0.263658Z" fill="#FAFBFC"/>
<path fill-rule="evenodd" clip-rule="evenodd" d="M4.11157 1.8885C3.70963 1.8885 3.14173 1.94406 2.55052 2.02502C2.27431 2.06285 2.06371 2.27346 2.02588 2.54966C1.94491 3.14087 1.88935 3.70878 1.88935 4.11072C1.88935 4.51266 1.94491 5.08056 2.02588 5.67178C2.06371 5.94798 2.27431 6.15859 2.55052 6.19641C3.14173 6.27738 3.70963 6.33294 4.11157 6.33294C4.51351 6.33294 5.08142 6.27738 5.67263 6.19641C5.94883 6.15859 6.15944 5.94798 6.19727 5.67178C6.27824 5.08056 6.3338 4.51266 6.3338 4.11072C6.3338 3.70878 6.27824 3.14087 6.19727 2.54966C6.15944 2.27346 5.94883 2.06285 5.67263 2.02502C5.08142 1.94406 4.51351 1.8885 4.11157 1.8885ZM2.30929 0.263688C1.24271 0.409761 0.410615 1.24186 0.264543 2.30844C0.180762 2.92018 0.111572 3.58464 0.111572 4.11072C0.111572 4.6368 0.180762 5.30126 0.264543 5.913C0.410615 6.97958 1.24271 7.81168 2.30929 7.95775C2.92104 8.04153 3.58549 8.11072 4.11157 8.11072C4.63765 8.11072 5.30211 8.04153 5.91385 7.95775C6.98043 7.81168 7.81253 6.97958 7.9586 5.913C8.04238 5.30126 8.11157 4.6368 8.11157 4.11072C8.11157 3.58464 8.04238 2.92018 7.9586 2.30844C7.81253 1.24186 6.98043 0.409761 5.91385 0.263688C5.30211 0.179908 4.63765 0.110718 4.11157 0.110718C3.58549 0.110718 2.92104 0.179908 2.30929 0.263688Z" fill="url(#paint2_linear_303_16)" fill-opacity="0.2"/>
<path fill-rule="evenodd" clip-rule="evenodd" d="M4.11157 1.8885C3.70963 1.8885 3.14173 1.94406 2.55052 2.02502C2.27431 2.06285 2.06371 2.27346 2.02588 2.54966C1.94491 3.14087 1.88935 3.70878 1.88935 4.11072C1.88935 4.51266 1.94491 5.08056 2.02588 5.67178C2.06371 5.94798 2.27431 6.15859 2.55052 6.19641C3.14173 6.27738 3.70963 6.33294 4.11157 6.33294C4.51351 6.33294 5.08142 6.27738 5.67263 6.19641C5.94883 6.15859 6.15944 5.94798 6.19727 5.67178C6.27824 5.08056 6.3338 4.51266 6.3338 4.11072C6.3338 3.70878 6.27824 3.14087 6.19727 2.54966C6.15944 2.27346 5.94883 2.06285 5.67263 2.02502C5.08142 1.94406 4.51351 1.8885 4.11157 1.8885ZM2.30929 0.263688C1.24271 0.409761 0.410615 1.24186 0.264543 2.30844C0.180762 2.92018 0.111572 3.58464 0.111572 4.11072C0.111572 4.6368 0.180762 5.30126 0.264543 5.913C0.410615 6.97958 1.24271 7.81168 2.30929 7.95775C2.92104 8.04153 3.58549 8.11072 4.11157 8.11072C4.63765 8.11072 5.30211 8.04153 5.91385 7.95775C6.98043 7.81168 7.81253 6.97958 7.9586 5.913C8.04238 5.30126 8.11157 4.6368 8.11157 4.11072C8.11157 3.58464 8.04238 2.92018 7.9586 2.30844C7.81253 1.24186 6.98043 0.409761 5.91385 0.263688C5.30211 0.179908 4.63765 0.110718 4.11157 0.110718C3.58549 0.110718 2.92104 0.179908 2.30929 0.263688Z" fill="#FAFBFC"/>
<path fill-rule="evenodd" clip-rule="evenodd" d="M14.8065 11.6666C14.8065 11.3637 14.561 11.1182 14.2581 11.1182C13.9552 11.1182 13.7096 11.3637 13.7096 11.6666V13.7101H11.6661C11.3632 13.7101 11.1176 13.9557 11.1176 14.2586C11.1176 14.5615 11.3632 14.807 11.6661 14.807H13.7096V16.8518C13.7096 17.1547 13.9552 17.4003 14.2581 17.4003C14.561 17.4003 14.8065 17.1547 14.8065 16.8518V14.807H16.8512C17.1541 14.807 17.3997 14.5615 17.3997 14.2586C17.3997 13.9557 17.1541 13.7101 16.8512 13.7101H14.8065V11.6666Z" fill="url(#paint3_linear_303_16)" fill-opacity="0.2"/>
<path fill-rule="evenodd" clip-rule="evenodd" d="M14.8065 11.6666C14.8065 11.3637 14.561 11.1182 14.2581 11.1182C13.9552 11.1182 13.7096 11.3637 13.7096 11.6666V13.7101H11.6661C11.3632 13.7101 11.1176 13.9557 11.1176 14.2586C11.1176 14.5615 11.3632 14.807 11.6661 14.807H13.7096V16.8518C13.7096 17.1547 13.9552 17.4003 14.2581 17.4003C14.561 17.4003 14.8065 17.1547 14.8065 16.8518V14.807H16.8512C17.1541 14.807 17.3997 14.5615 17.3997 14.2586C17.3997 13.9557 17.1541 13.7101 16.8512 13.7101H14.8065V11.6666Z" fill="#FAFBFC"/>
<defs>
<linearGradient id="paint0_linear_303_16" x1="0.111546" y1="13.8884" x2="8.11155" y2="13.8884" gradientUnits="userSpaceOnUse">
<stop stop-color="#F0F0F0"/>
<stop offset="1" stop-color="#F0F0F0" stop-opacity="0"/>
</linearGradient>
<linearGradient id="paint1_linear_303_16" x1="9.88952" y1="4.11069" x2="17.8895" y2="4.11069" gradientUnits="userSpaceOnUse">
<stop stop-color="#F0F0F0"/>
<stop offset="1" stop-color="#F0F0F0" stop-opacity="0"/>
</linearGradient>
<linearGradient id="paint2_linear_303_16" x1="0.111572" y1="4.11072" x2="8.11157" y2="4.11072" gradientUnits="userSpaceOnUse">
<stop stop-color="#F0F0F0"/>
<stop offset="1" stop-color="#F0F0F0" stop-opacity="0"/>
</linearGradient>
<linearGradient id="paint3_linear_303_16" x1="11.1176" y1="14.2592" x2="17.3997" y2="14.2592" gradientUnits="userSpaceOnUse">
<stop stop-color="#F0F0F0"/>
<stop offset="1" stop-color="#F0F0F0" stop-opacity="0"/>
</linearGradient>
</defs>
</svg>
