<svg width="20" height="18" viewBox="0 0 20 18" fill="none" xmlns="http://www.w3.org/2000/svg">
<path d="M8.63081 14.3332L9.11081 14.8576V11.6665C9.11081 11.4307 9.20446 11.2046 9.37116 11.0379C9.53786 10.8713 9.76395 10.7776 9.9997 10.7776C10.2354 10.7776 10.4615 10.8713 10.6282 11.0379C10.7949 11.2046 10.8886 11.4307 10.8886 11.6665V14.8576L11.3686 14.3687C11.4493 14.2776 11.5478 14.204 11.6581 14.1525C11.7684 14.101 11.8881 14.0727 12.0098 14.0694C12.1314 14.0661 12.2525 14.0878 12.3654 14.1331C12.4784 14.1785 12.5808 14.2466 12.6664 14.3332C12.7497 14.4158 12.8158 14.5141 12.8609 14.6224C12.9061 14.7307 12.9293 14.8469 12.9293 14.9643C12.9293 15.0816 12.9061 15.1978 12.8609 15.3061C12.8158 15.4144 12.7497 15.5127 12.6664 15.5954L10.6308 17.6309C10.5463 17.7119 10.4466 17.7753 10.3375 17.8176C10.1211 17.9065 9.87833 17.9065 9.66192 17.8176C9.55281 17.7753 9.45313 17.7119 9.36859 17.6309L7.33303 15.6309C7.16094 15.4588 7.06426 15.2254 7.06426 14.982C7.06426 14.7387 7.16094 14.5053 7.33303 14.3332C7.50513 14.1611 7.73854 14.0644 7.98192 14.0644C8.2253 14.0644 8.45872 14.1611 8.63081 14.3332ZM9.9997 8.99982C9.47229 8.99982 8.95671 8.84342 8.51818 8.55041C8.07965 8.25739 7.73786 7.84091 7.53602 7.35365C7.33419 6.86637 7.28138 6.3302 7.38427 5.81291C7.48717 5.29563 7.74114 4.82048 8.11408 4.44754C8.48702 4.0746 8.96218 3.82062 9.47946 3.71773C9.99674 3.61483 10.5329 3.66764 11.0202 3.86948C11.5075 4.07131 11.9239 4.41311 12.217 4.85164C12.51 5.29017 12.6664 5.80574 12.6664 6.33316C12.6664 7.0404 12.3854 7.71868 11.8853 8.21877C11.3852 8.71887 10.7069 8.99982 9.9997 8.99982ZM9.9997 5.44427C9.8239 5.44427 9.65204 5.4964 9.50586 5.59407C9.35968 5.69174 9.24575 5.83057 9.17848 5.99299C9.1112 6.15542 9.09359 6.33414 9.12789 6.50657C9.16219 6.679 9.24685 6.83738 9.37116 6.96169C9.49548 7.08601 9.65386 7.17067 9.82629 7.20496C9.99872 7.23926 10.1774 7.22166 10.3399 7.15438C10.5023 7.0871 10.6411 6.97317 10.7388 6.827C10.8365 6.68082 10.8886 6.50896 10.8886 6.33316C10.8886 6.09741 10.7949 5.87132 10.6282 5.70462C10.4615 5.53792 10.2354 5.44427 9.9997 5.44427ZM3.77748 6.33316C3.77748 6.15735 3.82961 5.98549 3.92728 5.83932C4.02496 5.69314 4.16378 5.57921 4.32621 5.51193C4.48863 5.44465 4.66735 5.42705 4.83978 5.46135C5.01221 5.49564 5.17059 5.5803 5.29491 5.70462C5.41922 5.82893 5.50388 5.98732 5.53818 6.15974C5.57248 6.33217 5.55487 6.5109 5.48759 6.67332C5.42032 6.83574 5.30639 6.97457 5.16021 7.07224C5.01403 7.16991 4.84217 7.22204 4.66637 7.22204C4.43062 7.22204 4.20453 7.12839 4.03783 6.96169C3.87113 6.795 3.77748 6.5689 3.77748 6.33316ZM16.2219 6.33316C16.2219 6.50896 16.1698 6.68082 16.0721 6.827C15.9744 6.97317 15.8356 7.0871 15.6732 7.15438C15.5108 7.22166 15.332 7.23926 15.1596 7.20496C14.9872 7.17067 14.8288 7.08601 14.7045 6.96169C14.5802 6.83738 14.4955 6.679 14.4612 6.50657C14.4269 6.33414 14.4445 6.15542 14.5118 5.99299C14.5791 5.83057 14.693 5.69174 14.8392 5.59407C14.9854 5.4964 15.1572 5.44427 15.333 5.44427C15.5688 5.44427 15.7949 5.53792 15.9616 5.70462C16.1283 5.87132 16.2219 6.09741 16.2219 6.33316ZM17.1108 12.5554H13.5553C13.3195 12.5554 13.0934 12.4617 12.9267 12.295C12.76 12.1283 12.6664 11.9022 12.6664 11.6665C12.6664 11.4307 12.76 11.2046 12.9267 11.0379C13.0934 10.8713 13.3195 10.7776 13.5553 10.7776H17.1108C17.3466 10.7776 17.5727 10.6839 17.7394 10.5173C17.9061 10.3506 17.9997 10.1245 17.9997 9.88871V2.7776C17.9997 2.54185 17.9061 2.31576 17.7394 2.14906C17.5727 1.98236 17.3466 1.88871 17.1108 1.88871H2.88859C2.65284 1.88871 2.42675 1.98236 2.26005 2.14906C2.09335 2.31576 1.9997 2.54185 1.9997 2.7776V9.88871C1.9997 10.1245 2.09335 10.3506 2.26005 10.5173C2.42675 10.6839 2.65284 10.7776 2.88859 10.7776H6.44415C6.67989 10.7776 6.90599 10.8713 7.07269 11.0379C7.23938 11.2046 7.33303 11.4307 7.33303 11.6665C7.33303 11.9022 7.23938 12.1283 7.07269 12.295C6.90599 12.4617 6.67989 12.5554 6.44415 12.5554H2.88859C2.18135 12.5554 1.50307 12.2744 1.00297 11.7743C0.502875 11.2742 0.221924 10.596 0.221924 9.88871V2.7776C0.221924 2.07036 0.502875 1.39208 1.00297 0.891981C1.50307 0.391886 2.18135 0.110933 2.88859 0.110933H17.1108C17.8181 0.110933 18.4963 0.391886 18.9964 0.891981C19.4965 1.39208 19.7775 2.07036 19.7775 2.7776V9.88871C19.7775 10.596 19.4965 11.2742 18.9964 11.7743C18.4963 12.2744 17.8181 12.5554 17.1108 12.5554Z" fill="url(#paint0_linear_303_12)" fill-opacity="0.2"/>
<path d="M8.63081 14.3332L9.11081 14.8576V11.6665C9.11081 11.4307 9.20446 11.2046 9.37116 11.0379C9.53786 10.8713 9.76395 10.7776 9.9997 10.7776C10.2354 10.7776 10.4615 10.8713 10.6282 11.0379C10.7949 11.2046 10.8886 11.4307 10.8886 11.6665V14.8576L11.3686 14.3687C11.4493 14.2776 11.5478 14.204 11.6581 14.1525C11.7684 14.101 11.8881 14.0727 12.0098 14.0694C12.1314 14.0661 12.2525 14.0878 12.3654 14.1331C12.4784 14.1785 12.5808 14.2466 12.6664 14.3332C12.7497 14.4158 12.8158 14.5141 12.8609 14.6224C12.9061 14.7307 12.9293 14.8469 12.9293 14.9643C12.9293 15.0816 12.9061 15.1978 12.8609 15.3061C12.8158 15.4144 12.7497 15.5127 12.6664 15.5954L10.6308 17.6309C10.5463 17.7119 10.4466 17.7753 10.3375 17.8176C10.1211 17.9065 9.87833 17.9065 9.66192 17.8176C9.55281 17.7753 9.45313 17.7119 9.36859 17.6309L7.33303 15.6309C7.16094 15.4588 7.06426 15.2254 7.06426 14.982C7.06426 14.7387 7.16094 14.5053 7.33303 14.3332C7.50513 14.1611 7.73854 14.0644 7.98192 14.0644C8.2253 14.0644 8.45872 14.1611 8.63081 14.3332ZM9.9997 8.99982C9.47229 8.99982 8.95671 8.84342 8.51818 8.55041C8.07965 8.25739 7.73786 7.84091 7.53602 7.35365C7.33419 6.86637 7.28138 6.3302 7.38427 5.81291C7.48717 5.29563 7.74114 4.82048 8.11408 4.44754C8.48702 4.0746 8.96218 3.82062 9.47946 3.71773C9.99674 3.61483 10.5329 3.66764 11.0202 3.86948C11.5075 4.07131 11.9239 4.41311 12.217 4.85164C12.51 5.29017 12.6664 5.80574 12.6664 6.33316C12.6664 7.0404 12.3854 7.71868 11.8853 8.21877C11.3852 8.71887 10.7069 8.99982 9.9997 8.99982ZM9.9997 5.44427C9.8239 5.44427 9.65204 5.4964 9.50586 5.59407C9.35968 5.69174 9.24575 5.83057 9.17848 5.99299C9.1112 6.15542 9.09359 6.33414 9.12789 6.50657C9.16219 6.679 9.24685 6.83738 9.37116 6.96169C9.49548 7.08601 9.65386 7.17067 9.82629 7.20496C9.99872 7.23926 10.1774 7.22166 10.3399 7.15438C10.5023 7.0871 10.6411 6.97317 10.7388 6.827C10.8365 6.68082 10.8886 6.50896 10.8886 6.33316C10.8886 6.09741 10.7949 5.87132 10.6282 5.70462C10.4615 5.53792 10.2354 5.44427 9.9997 5.44427ZM3.77748 6.33316C3.77748 6.15735 3.82961 5.98549 3.92728 5.83932C4.02496 5.69314 4.16378 5.57921 4.32621 5.51193C4.48863 5.44465 4.66735 5.42705 4.83978 5.46135C5.01221 5.49564 5.17059 5.5803 5.29491 5.70462C5.41922 5.82893 5.50388 5.98732 5.53818 6.15974C5.57248 6.33217 5.55487 6.5109 5.48759 6.67332C5.42032 6.83574 5.30639 6.97457 5.16021 7.07224C5.01403 7.16991 4.84217 7.22204 4.66637 7.22204C4.43062 7.22204 4.20453 7.12839 4.03783 6.96169C3.87113 6.795 3.77748 6.5689 3.77748 6.33316ZM16.2219 6.33316C16.2219 6.50896 16.1698 6.68082 16.0721 6.827C15.9744 6.97317 15.8356 7.0871 15.6732 7.15438C15.5108 7.22166 15.332 7.23926 15.1596 7.20496C14.9872 7.17067 14.8288 7.08601 14.7045 6.96169C14.5802 6.83738 14.4955 6.679 14.4612 6.50657C14.4269 6.33414 14.4445 6.15542 14.5118 5.99299C14.5791 5.83057 14.693 5.69174 14.8392 5.59407C14.9854 5.4964 15.1572 5.44427 15.333 5.44427C15.5688 5.44427 15.7949 5.53792 15.9616 5.70462C16.1283 5.87132 16.2219 6.09741 16.2219 6.33316ZM17.1108 12.5554H13.5553C13.3195 12.5554 13.0934 12.4617 12.9267 12.295C12.76 12.1283 12.6664 11.9022 12.6664 11.6665C12.6664 11.4307 12.76 11.2046 12.9267 11.0379C13.0934 10.8713 13.3195 10.7776 13.5553 10.7776H17.1108C17.3466 10.7776 17.5727 10.6839 17.7394 10.5173C17.9061 10.3506 17.9997 10.1245 17.9997 9.88871V2.7776C17.9997 2.54185 17.9061 2.31576 17.7394 2.14906C17.5727 1.98236 17.3466 1.88871 17.1108 1.88871H2.88859C2.65284 1.88871 2.42675 1.98236 2.26005 2.14906C2.09335 2.31576 1.9997 2.54185 1.9997 2.7776V9.88871C1.9997 10.1245 2.09335 10.3506 2.26005 10.5173C2.42675 10.6839 2.65284 10.7776 2.88859 10.7776H6.44415C6.67989 10.7776 6.90599 10.8713 7.07269 11.0379C7.23938 11.2046 7.33303 11.4307 7.33303 11.6665C7.33303 11.9022 7.23938 12.1283 7.07269 12.295C6.90599 12.4617 6.67989 12.5554 6.44415 12.5554H2.88859C2.18135 12.5554 1.50307 12.2744 1.00297 11.7743C0.502875 11.2742 0.221924 10.596 0.221924 9.88871V2.7776C0.221924 2.07036 0.502875 1.39208 1.00297 0.891981C1.50307 0.391886 2.18135 0.110933 2.88859 0.110933H17.1108C17.8181 0.110933 18.4963 0.391886 18.9964 0.891981C19.4965 1.39208 19.7775 2.07036 19.7775 2.7776V9.88871C19.7775 10.596 19.4965 11.2742 18.9964 11.7743C18.4963 12.2744 17.8181 12.5554 17.1108 12.5554Z" fill="#FAFBFC"/>
<defs>
<linearGradient id="paint0_linear_303_12" x1="0.221924" y1="8.99761" x2="19.7775" y2="8.99761" gradientUnits="userSpaceOnUse">
<stop stop-color="#F0F0F0"/>
<stop offset="1" stop-color="#F0F0F0" stop-opacity="0"/>
</linearGradient>
</defs>
</svg>
