<svg width="20" height="18" viewBox="0 0 20 18" fill="none" xmlns="http://www.w3.org/2000/svg">
<path d="M8.63081 3.66208L9.11081 3.13764V6.32875C9.11081 6.5645 9.20446 6.79059 9.37116 6.95729C9.53786 7.12399 9.76395 7.21764 9.9997 7.21764C10.2354 7.21764 10.4615 7.12399 10.6282 6.95729C10.7949 6.79059 10.8886 6.5645 10.8886 6.32875V3.13764L11.3686 3.62653C11.4493 3.71766 11.5478 3.79125 11.6581 3.84274C11.7684 3.89422 11.8881 3.92251 12.0098 3.92584C12.1314 3.92918 12.2525 3.90749 12.3654 3.86211C12.4784 3.81674 12.5808 3.74866 12.6664 3.66208C12.7497 3.57945 12.8158 3.48114 12.8609 3.37282C12.9061 3.2645 12.9293 3.14832 12.9293 3.03097C12.9293 2.91363 12.9061 2.79745 12.8609 2.68913C12.8158 2.58081 12.7497 2.4825 12.6664 2.39986L10.6308 0.364307C10.5463 0.283382 10.4466 0.219947 10.3375 0.177641C10.1211 0.0887357 9.87833 0.0887357 9.66192 0.177641C9.55281 0.219947 9.45313 0.283382 9.36859 0.364307L7.33303 2.36431C7.16094 2.5364 7.06426 2.76982 7.06426 3.0132C7.06426 3.25658 7.16094 3.48999 7.33303 3.66208C7.50513 3.83418 7.73854 3.93086 7.98192 3.93086C8.2253 3.93086 8.45872 3.83418 8.63081 3.66208ZM9.9997 8.99542C9.47229 8.99542 8.95671 9.15181 8.51818 9.44483C8.07965 9.73785 7.73786 10.1543 7.53602 10.6416C7.33419 11.1289 7.28138 11.665 7.38427 12.1823C7.48717 12.6996 7.74114 13.1748 8.11408 13.5477C8.48702 13.9206 8.96218 14.1746 9.47946 14.2775C9.99674 14.3804 10.5329 14.3276 11.0202 14.1258C11.5075 13.9239 11.9239 13.5821 12.217 13.1436C12.51 12.7051 12.6664 12.1895 12.6664 11.6621C12.6664 10.9548 12.3854 10.2766 11.8853 9.77647C11.3852 9.27637 10.7069 8.99542 9.9997 8.99542ZM9.9997 12.551C9.8239 12.551 9.65204 12.4988 9.50586 12.4012C9.35968 12.3035 9.24575 12.1647 9.17848 12.0022C9.1112 11.8398 9.09359 11.6611 9.12789 11.4887C9.16219 11.3162 9.24685 11.1579 9.37116 11.0335C9.49548 10.9092 9.65386 10.8246 9.82629 10.7903C9.99872 10.756 10.1774 10.7736 10.3399 10.8409C10.5023 10.9081 10.6411 11.0221 10.7388 11.1682C10.8365 11.3144 10.8886 11.4863 10.8886 11.6621C10.8886 11.8978 10.7949 12.1239 10.6282 12.2906C10.4615 12.4573 10.2354 12.551 9.9997 12.551ZM3.77748 11.6621C3.77748 11.8379 3.82961 12.0097 3.92728 12.1559C4.02496 12.3021 4.16378 12.416 4.32621 12.4833C4.48863 12.5506 4.66735 12.5682 4.83978 12.5339C5.01221 12.4996 5.17059 12.4149 5.29491 12.2906C5.41922 12.1663 5.50388 12.0079 5.53818 11.8355C5.57248 11.6631 5.55487 11.4843 5.48759 11.3219C5.42032 11.1595 5.30639 11.0207 5.16021 10.923C5.01403 10.8253 4.84217 10.7732 4.66637 10.7732C4.43062 10.7732 4.20453 10.8668 4.03783 11.0335C3.87113 11.2002 3.77748 11.4263 3.77748 11.6621ZM16.2219 11.6621C16.2219 11.4863 16.1698 11.3144 16.0721 11.1682C15.9744 11.0221 15.8356 10.9081 15.6732 10.8409C15.5108 10.7736 15.332 10.756 15.1596 10.7903C14.9872 10.8246 14.8288 10.9092 14.7045 11.0335C14.5802 11.1579 14.4955 11.3162 14.4612 11.4887C14.4269 11.6611 14.4445 11.8398 14.5118 12.0022C14.5791 12.1647 14.693 12.3035 14.8392 12.4012C14.9854 12.4988 15.1572 12.551 15.333 12.551C15.5688 12.551 15.7949 12.4573 15.9616 12.2906C16.1283 12.1239 16.2219 11.8978 16.2219 11.6621ZM17.1108 5.43986H13.5553C13.3195 5.43986 13.0934 5.53351 12.9267 5.70021C12.76 5.86691 12.6664 6.093 12.6664 6.32875C12.6664 6.5645 12.76 6.79059 12.9267 6.95729C13.0934 7.12399 13.3195 7.21764 13.5553 7.21764H17.1108C17.3466 7.21764 17.5727 7.31129 17.7394 7.47799C17.9061 7.64469 17.9997 7.87078 17.9997 8.10653V15.2176C17.9997 15.4534 17.9061 15.6795 17.7394 15.8462C17.5727 16.0129 17.3466 16.1065 17.1108 16.1065H2.88859C2.65284 16.1065 2.42675 16.0129 2.26005 15.8462C2.09335 15.6795 1.9997 15.4534 1.9997 15.2176V8.10653C1.9997 7.87078 2.09335 7.64469 2.26005 7.47799C2.42675 7.31129 2.65284 7.21764 2.88859 7.21764H6.44415C6.67989 7.21764 6.90599 7.12399 7.07269 6.95729C7.23938 6.79059 7.33303 6.5645 7.33303 6.32875C7.33303 6.093 7.23938 5.86691 7.07269 5.70021C6.90599 5.53351 6.67989 5.43986 6.44415 5.43986H2.88859C2.18135 5.43986 1.50307 5.72081 1.00297 6.22091C0.502875 6.72101 0.221924 7.39928 0.221924 8.10653V15.2176C0.221924 15.9249 0.502875 16.6032 1.00297 17.1033C1.50307 17.6034 2.18135 17.8843 2.88859 17.8843H17.1108C17.8181 17.8843 18.4963 17.6034 18.9964 17.1033C19.4965 16.6032 19.7775 15.9249 19.7775 15.2176V8.10653C19.7775 7.39928 19.4965 6.72101 18.9964 6.22091C18.4963 5.72081 17.8181 5.43986 17.1108 5.43986Z" fill="url(#paint0_linear_303_8)" fill-opacity="0.2"/>
<path d="M8.63081 3.66208L9.11081 3.13764V6.32875C9.11081 6.5645 9.20446 6.79059 9.37116 6.95729C9.53786 7.12399 9.76395 7.21764 9.9997 7.21764C10.2354 7.21764 10.4615 7.12399 10.6282 6.95729C10.7949 6.79059 10.8886 6.5645 10.8886 6.32875V3.13764L11.3686 3.62653C11.4493 3.71766 11.5478 3.79125 11.6581 3.84274C11.7684 3.89422 11.8881 3.92251 12.0098 3.92584C12.1314 3.92918 12.2525 3.90749 12.3654 3.86211C12.4784 3.81674 12.5808 3.74866 12.6664 3.66208C12.7497 3.57945 12.8158 3.48114 12.8609 3.37282C12.9061 3.2645 12.9293 3.14832 12.9293 3.03097C12.9293 2.91363 12.9061 2.79745 12.8609 2.68913C12.8158 2.58081 12.7497 2.4825 12.6664 2.39986L10.6308 0.364307C10.5463 0.283382 10.4466 0.219947 10.3375 0.177641C10.1211 0.0887357 9.87833 0.0887357 9.66192 0.177641C9.55281 0.219947 9.45313 0.283382 9.36859 0.364307L7.33303 2.36431C7.16094 2.5364 7.06426 2.76982 7.06426 3.0132C7.06426 3.25658 7.16094 3.48999 7.33303 3.66208C7.50513 3.83418 7.73854 3.93086 7.98192 3.93086C8.2253 3.93086 8.45872 3.83418 8.63081 3.66208ZM9.9997 8.99542C9.47229 8.99542 8.95671 9.15181 8.51818 9.44483C8.07965 9.73785 7.73786 10.1543 7.53602 10.6416C7.33419 11.1289 7.28138 11.665 7.38427 12.1823C7.48717 12.6996 7.74114 13.1748 8.11408 13.5477C8.48702 13.9206 8.96218 14.1746 9.47946 14.2775C9.99674 14.3804 10.5329 14.3276 11.0202 14.1258C11.5075 13.9239 11.9239 13.5821 12.217 13.1436C12.51 12.7051 12.6664 12.1895 12.6664 11.6621C12.6664 10.9548 12.3854 10.2766 11.8853 9.77647C11.3852 9.27637 10.7069 8.99542 9.9997 8.99542ZM9.9997 12.551C9.8239 12.551 9.65204 12.4988 9.50586 12.4012C9.35968 12.3035 9.24575 12.1647 9.17848 12.0022C9.1112 11.8398 9.09359 11.6611 9.12789 11.4887C9.16219 11.3162 9.24685 11.1579 9.37116 11.0335C9.49548 10.9092 9.65386 10.8246 9.82629 10.7903C9.99872 10.756 10.1774 10.7736 10.3399 10.8409C10.5023 10.9081 10.6411 11.0221 10.7388 11.1682C10.8365 11.3144 10.8886 11.4863 10.8886 11.6621C10.8886 11.8978 10.7949 12.1239 10.6282 12.2906C10.4615 12.4573 10.2354 12.551 9.9997 12.551ZM3.77748 11.6621C3.77748 11.8379 3.82961 12.0097 3.92728 12.1559C4.02496 12.3021 4.16378 12.416 4.32621 12.4833C4.48863 12.5506 4.66735 12.5682 4.83978 12.5339C5.01221 12.4996 5.17059 12.4149 5.29491 12.2906C5.41922 12.1663 5.50388 12.0079 5.53818 11.8355C5.57248 11.6631 5.55487 11.4843 5.48759 11.3219C5.42032 11.1595 5.30639 11.0207 5.16021 10.923C5.01403 10.8253 4.84217 10.7732 4.66637 10.7732C4.43062 10.7732 4.20453 10.8668 4.03783 11.0335C3.87113 11.2002 3.77748 11.4263 3.77748 11.6621ZM16.2219 11.6621C16.2219 11.4863 16.1698 11.3144 16.0721 11.1682C15.9744 11.0221 15.8356 10.9081 15.6732 10.8409C15.5108 10.7736 15.332 10.756 15.1596 10.7903C14.9872 10.8246 14.8288 10.9092 14.7045 11.0335C14.5802 11.1579 14.4955 11.3162 14.4612 11.4887C14.4269 11.6611 14.4445 11.8398 14.5118 12.0022C14.5791 12.1647 14.693 12.3035 14.8392 12.4012C14.9854 12.4988 15.1572 12.551 15.333 12.551C15.5688 12.551 15.7949 12.4573 15.9616 12.2906C16.1283 12.1239 16.2219 11.8978 16.2219 11.6621ZM17.1108 5.43986H13.5553C13.3195 5.43986 13.0934 5.53351 12.9267 5.70021C12.76 5.86691 12.6664 6.093 12.6664 6.32875C12.6664 6.5645 12.76 6.79059 12.9267 6.95729C13.0934 7.12399 13.3195 7.21764 13.5553 7.21764H17.1108C17.3466 7.21764 17.5727 7.31129 17.7394 7.47799C17.9061 7.64469 17.9997 7.87078 17.9997 8.10653V15.2176C17.9997 15.4534 17.9061 15.6795 17.7394 15.8462C17.5727 16.0129 17.3466 16.1065 17.1108 16.1065H2.88859C2.65284 16.1065 2.42675 16.0129 2.26005 15.8462C2.09335 15.6795 1.9997 15.4534 1.9997 15.2176V8.10653C1.9997 7.87078 2.09335 7.64469 2.26005 7.47799C2.42675 7.31129 2.65284 7.21764 2.88859 7.21764H6.44415C6.67989 7.21764 6.90599 7.12399 7.07269 6.95729C7.23938 6.79059 7.33303 6.5645 7.33303 6.32875C7.33303 6.093 7.23938 5.86691 7.07269 5.70021C6.90599 5.53351 6.67989 5.43986 6.44415 5.43986H2.88859C2.18135 5.43986 1.50307 5.72081 1.00297 6.22091C0.502875 6.72101 0.221924 7.39928 0.221924 8.10653V15.2176C0.221924 15.9249 0.502875 16.6032 1.00297 17.1033C1.50307 17.6034 2.18135 17.8843 2.88859 17.8843H17.1108C17.8181 17.8843 18.4963 17.6034 18.9964 17.1033C19.4965 16.6032 19.7775 15.9249 19.7775 15.2176V8.10653C19.7775 7.39928 19.4965 6.72101 18.9964 6.22091C18.4963 5.72081 17.8181 5.43986 17.1108 5.43986Z" fill="#FAFBFC"/>
<defs>
<linearGradient id="paint0_linear_303_8" x1="0.221924" y1="8.99763" x2="19.7775" y2="8.99763" gradientUnits="userSpaceOnUse">
<stop stop-color="#F0F0F0"/>
<stop offset="1" stop-color="#F0F0F0" stop-opacity="0"/>
</linearGradient>
</defs>
</svg>
